<svg xmlns="http://www.w3.org/2000/svg" width="98" height="99">
    <path fill-rule="evenodd" fill="#6DA2C2" d="M48.955.786c27.035 0 48.951 21.916 48.951 48.951 0 27.034-21.916 48.951-48.951 48.951-27.034 0-48.95-21.917-48.95-48.951C.005 22.702 21.921.786 48.955.786z"/>
    <path fill-rule="evenodd" fill="#FFF" d="M52.942 49.688 67.084 63.83a2.5 2.5 0 1 1-3.536 3.535L49.406 53.223 35.264 67.365a2.498 2.498 0 0 1-3.535 0 2.498 2.498 0 0 1 0-3.535l14.142-14.142-14.142-14.142a2.5 2.5 0 1 1 3.535-3.536l14.142 14.142L63.548 32.01a2.501 2.501 0 0 1 3.536 3.536L52.942 49.688z"/>
</svg>
