<svg xmlns="http://www.w3.org/2000/svg" width="99" height="99">
    <path fill-rule="evenodd" fill="#6DA2C2" d="M49.643.786c27.035 0 48.951 21.916 48.951 48.951 0 27.034-21.916 48.951-48.951 48.951S.692 76.771.692 49.737C.692 22.702 22.608.786 49.643.786z"/>
    <path fill-rule="evenodd" fill="#FFF" d="M50.437 54.214c-2.366 0-4.284-1.803-4.284-4.027 0-2.223 1.918-4.026 4.284-4.026 2.366 0 4.283 1.803 4.283 4.026 0 2.224-1.917 4.027-4.283 4.027zm0-12.08c-2.366 0-4.284-1.803-4.284-4.027s1.918-4.026 4.284-4.026c2.366 0 4.283 1.802 4.283 4.026 0 2.224-1.917 4.027-4.283 4.027zm0 16.107c2.366 0 4.283 1.803 4.283 4.027 0 2.223-1.917 4.026-4.283 4.026-2.366 0-4.284-1.803-4.284-4.026 0-2.224 1.918-4.027 4.284-4.027z"/>
</svg>
